<svg width="115" height="62" viewBox="0 0 115 62" fill="none" xmlns="http://www.w3.org/2000/svg">
<path d="M92.4151 61.5543C92.3975 61.5543 92.3887 61.5484 92.3887 61.5366C92.3887 61.4779 92.8027 61.0139 93.6309 60.1447C94.6763 59.0523 95.199 58.4503 95.199 58.3387V58.3299C95.1344 58.3299 94.597 58.8291 93.5868 59.8275C93.3578 60.0507 93.2374 60.1623 93.2256 60.1623C93.2197 60.1623 93.2139 60.1476 93.208 60.1183C93.208 60.0771 93.2109 60.0213 93.2168 59.9509C93.2227 59.8804 93.2755 59.7688 93.3754 59.6161C93.4693 59.4634 93.5868 59.3078 93.7278 59.1492C93.9803 58.8673 94.1741 58.647 94.3092 58.4884C94.4384 58.3299 94.5206 58.2183 94.5559 58.1537C94.5853 58.0949 94.5999 58.0538 94.5999 58.0303C94.5999 57.9951 94.5794 57.9745 94.5383 57.9687C94.4619 57.9687 94.3856 58.0039 94.3092 58.0744C94.2505 58.1214 94.2152 58.1449 94.2035 58.1449L94.1947 58.136C94.1947 58.1243 94.2387 58.0685 94.3268 57.9687C94.4737 57.7925 94.5471 57.6721 94.5471 57.6075C94.5471 57.5428 95.1873 56.6384 96.4676 54.894C96.7026 54.571 96.82 54.3831 96.82 54.3302C96.82 54.3185 96.8141 54.3126 96.8024 54.3126C96.7378 54.3185 96.5469 54.5152 96.2298 54.9028C95.895 55.3316 95.5015 55.7633 95.0492 56.1979L94.3885 56.8322C94.506 56.6442 94.6234 56.4563 94.7409 56.2684C94.8584 56.0863 95.1344 55.6987 95.569 55.1055C95.9978 54.5123 96.4882 53.8515 97.0403 53.1233C99.09 50.4274 100.679 48.0987 101.806 46.1371C102.94 44.1754 103.818 42.2226 104.441 40.2785C104.705 39.468 104.916 38.6516 105.075 37.8294C105.239 37.0071 105.324 36.3258 105.33 35.7855C105.324 35.3098 105.257 34.7929 105.128 34.235C104.998 33.677 104.846 33.2277 104.67 32.8871C104.464 32.4583 104.206 32.197 103.894 32.103C103.583 32.0032 103.169 31.9532 102.652 31.9532C102.394 31.9532 102.103 31.962 101.78 31.9797C101.287 32.0032 100.905 32.0149 100.635 32.0149C100.182 32.0149 99.8477 31.9503 99.6303 31.8211C98.9725 31.457 98.6436 30.9284 98.6436 30.2353C98.6436 29.9652 98.6936 29.6686 98.7934 29.3455C98.9872 28.6055 100.127 26.8847 102.212 24.183C104.32 21.4284 105.703 19.4844 106.361 18.3509C106.678 17.8223 106.837 17.5022 106.837 17.3906C106.837 17.3554 106.816 17.3377 106.775 17.3377C106.658 17.3377 106.226 17.6167 105.48 18.1747C103.924 19.3317 102.743 20.289 101.939 21.0467C101.668 21.2992 101.489 21.4255 101.401 21.4255C101.384 21.4255 101.375 21.4196 101.375 21.4079C101.375 21.3668 101.436 21.2728 101.56 21.126C101.577 21.1025 101.586 21.0878 101.586 21.0819C101.569 21.0819 101.454 21.1788 101.243 21.3726C101.002 21.5841 100.855 21.6898 100.802 21.6898C100.784 21.6839 100.776 21.6722 100.776 21.6546C100.776 21.5899 100.902 21.4343 101.154 21.1876C101.413 20.9351 101.542 20.7383 101.542 20.5974C101.542 20.5621 101.527 20.5445 101.498 20.5445C101.451 20.5445 101.366 20.5974 101.243 20.7031C101.125 20.8088 101.055 20.8617 101.031 20.8617C101.025 20.8617 101.022 20.8587 101.022 20.8529C101.022 20.8 101.11 20.6679 101.287 20.4564C101.439 20.2743 101.618 20.0864 101.824 19.8926C102.276 19.4638 102.502 19.2172 102.502 19.1526C102.502 19.1467 102.499 19.1438 102.494 19.1438C102.47 19.1438 102.282 19.2935 101.93 19.5931C101.847 19.6635 101.798 19.7105 101.78 19.734C101.322 20.1628 101.075 20.3771 101.04 20.3771V20.3683C101.04 20.3331 101.234 20.1011 101.621 19.6723C102.743 18.4213 103.304 17.6843 103.304 17.4611C103.304 17.3847 103.398 17.2467 103.586 17.047C104.256 16.3129 104.675 15.8342 104.846 15.611C104.916 15.517 104.951 15.4495 104.951 15.4084C104.951 15.3673 105.081 15.2616 105.339 15.0912C106.003 14.6625 106.567 14.3659 107.031 14.2014C107.406 14.0722 107.756 14.0076 108.079 14.0076C108.355 14.0076 108.61 14.0575 108.845 14.1574C109.615 14.498 110 15.1676 110 16.166C110 16.5184 109.941 16.9061 109.823 17.3289C109.606 17.9867 109.204 18.8383 108.616 19.8838C108.029 20.9233 107.462 21.7808 106.916 22.4562C106.294 23.2315 105.213 24.644 103.674 26.6938C102.582 28.1503 102.035 28.9462 102.035 29.0812C102.035 29.1458 102.408 29.184 103.154 29.1958C103.595 29.1958 103.941 29.2193 104.194 29.2662C104.446 29.3132 104.711 29.4013 104.987 29.5305C106.989 30.4879 107.991 32.6198 107.991 35.9265C107.991 36.6547 107.95 37.3067 107.868 37.8823C107.785 38.5048 107.633 39.1979 107.409 39.9614C107.128 41.0009 106.831 41.9142 106.52 42.7012C106.091 43.7936 105.442 45.1944 104.573 46.9035C104.332 47.3734 103.903 48.1046 103.286 49.0972C102.805 49.8842 102.543 50.307 102.502 50.3658C101.78 51.5463 101.031 52.6035 100.256 53.5373C99.6627 54.2421 99.1341 54.9175 98.6701 55.5636C98.3764 55.9512 97.9888 56.4152 97.5072 56.9555C97.0197 57.5017 96.5733 57.9775 96.1681 58.3827C95.757 58.7938 95.5162 58.9994 95.4457 58.9994H95.4369C95.3958 58.9994 95.2636 59.0993 95.0404 59.2989C94.8172 59.4986 94.5471 59.757 94.2299 60.0742C93.9069 60.3972 93.625 60.6674 93.3842 60.8847C93.1434 61.102 93.0083 61.2107 92.9789 61.2107C92.9437 61.2107 92.8938 61.2312 92.8292 61.2723C92.7587 61.3135 92.6911 61.3634 92.6265 61.4221C92.5619 61.4808 92.5149 61.5161 92.4856 61.5278C92.4503 61.5454 92.4268 61.5543 92.4151 61.5543ZM105.498 37.4065C105.515 37.4065 105.548 37.2861 105.595 37.0453C105.659 36.7223 105.692 36.3787 105.692 36.0146C105.692 35.8736 105.686 35.8031 105.674 35.8031C105.656 35.8031 105.624 35.9441 105.577 36.226C105.512 36.5901 105.48 36.9279 105.48 37.2391C105.48 37.3507 105.486 37.4065 105.498 37.4065ZM105.639 35.3979C105.674 35.3979 105.692 35.3127 105.692 35.1424C105.692 35.0895 105.686 35.0396 105.674 34.9926C105.662 34.9515 105.65 34.931 105.639 34.931C105.627 34.931 105.618 35.0014 105.612 35.1424C105.612 35.3127 105.621 35.3979 105.639 35.3979ZM104.678 32.1382C104.684 32.1382 104.687 32.1353 104.687 32.1294C104.687 32.1059 104.593 32.009 104.405 31.8387C104.17 31.6331 104.006 31.5304 103.912 31.5304C103.894 31.5304 103.885 31.5362 103.885 31.548C103.885 31.5891 103.991 31.686 104.203 31.8387C104.49 32.0384 104.649 32.1382 104.678 32.1382ZM101.146 31.6273C101.328 31.6273 101.419 31.6155 101.419 31.592C101.419 31.5627 101.328 31.548 101.146 31.548C100.964 31.548 100.873 31.5627 100.873 31.592C100.873 31.6155 100.964 31.6273 101.146 31.6273ZM102.793 31.4863C103.187 31.4863 103.383 31.4775 103.383 31.4599C103.383 31.4305 103.187 31.4158 102.793 31.4158C102.4 31.4158 102.203 31.4305 102.203 31.4599C102.203 31.4775 102.4 31.4863 102.793 31.4863ZM94.4414 60.1447C94.4296 60.1447 94.4237 60.1359 94.4237 60.1183C94.4237 60.036 94.597 59.8275 94.9435 59.4928C95.1608 59.2872 95.293 59.1844 95.34 59.1844C95.3458 59.1844 95.3488 59.1903 95.3488 59.202C95.3488 59.249 95.2754 59.3606 95.1285 59.5368C94.9171 59.7894 94.7291 59.9714 94.5647 60.083C94.506 60.1241 94.4649 60.1447 94.4414 60.1447Z" fill="#FFE500"/>
<path d="M88.8474 28.861C88.5185 28.861 88.2043 28.767 87.9047 28.5791C87.4819 28.3089 87.2058 27.933 87.0766 27.4514C86.9533 26.9698 86.8916 26.4559 86.8916 25.9097C86.8916 24.7527 87.15 22.9055 87.6669 20.3683C88.2307 17.5785 88.586 16.1837 88.7329 16.1837H88.7505C88.7798 16.1837 88.8121 16.166 88.8474 16.1308C88.8826 16.0897 88.912 16.0398 88.9355 15.981C88.959 15.9223 88.9795 15.8929 88.9972 15.8929C89.0206 15.8929 89.0353 16.0016 89.0412 16.2189C89.0471 16.4303 89.0588 16.5507 89.0764 16.5801C89.0941 16.6095 89.1117 16.6241 89.1293 16.6241C89.1528 16.6241 89.188 16.6036 89.235 16.5625C89.282 16.5214 89.3172 16.5008 89.3407 16.5008C89.3701 16.5008 89.3848 16.539 89.3848 16.6153C89.3848 16.6799 89.376 16.7798 89.3584 16.9149C89.3407 17.0441 89.3202 17.1762 89.2967 17.3113C89.2791 17.4405 89.2614 17.5404 89.2438 17.6108L89.235 17.6901C89.235 17.743 89.2497 17.7724 89.2791 17.7782C89.3495 17.7782 89.423 17.5404 89.4993 17.0646C89.558 16.6418 89.6197 16.4303 89.6843 16.4303C89.7078 16.4303 89.7225 16.4802 89.7284 16.5801C89.7284 16.6799 89.7137 16.8033 89.6843 16.9501C89.6432 17.185 89.6226 17.4317 89.6226 17.6901C89.6226 18.3127 89.6873 18.7209 89.8165 18.9147C89.9163 19.0439 89.9868 19.3346 90.0279 19.7869C90.0808 20.2567 90.1424 20.4917 90.2129 20.4917C90.254 20.4917 90.2746 20.5093 90.2746 20.5445C90.2746 20.5739 90.2746 20.5974 90.2746 20.615C90.2746 20.7677 90.1865 21.3374 90.0103 22.3241C89.84 23.3108 89.7548 23.9803 89.7548 24.3327C89.7548 24.5324 89.7871 24.6323 89.8517 24.6323C89.9457 24.6323 90.1777 24.3768 90.5477 23.8658C90.9236 23.349 91.7957 22.0627 93.1642 20.0071C94.797 17.5521 95.8629 16.0045 96.3622 15.3643C97.1198 14.4775 97.8128 14.0341 98.4413 14.0341C98.6762 14.0341 98.8612 14.1251 98.9963 14.3072C99.1725 14.5832 99.3017 14.8857 99.3839 15.2146C99.472 15.5435 99.5161 15.8224 99.5161 16.0515C99.5161 16.4156 99.3223 17.6226 98.9346 19.6723C98.6527 21.1348 98.409 22.2742 98.2034 23.0906C98.1212 23.396 98.0507 23.8541 97.992 24.4649C97.9333 25.0698 97.8686 25.4898 97.7982 25.7247C97.7159 26.0125 97.6748 26.312 97.6748 26.6233C97.6748 26.9052 97.6455 27.0462 97.5867 27.0462C97.5809 27.0462 97.572 27.0432 97.5603 27.0374C97.5544 27.0315 97.5456 27.0285 97.5339 27.0285C97.4928 27.0285 97.4546 27.0785 97.4193 27.1783C97.39 27.2723 97.3724 27.378 97.3665 27.4955C97.3606 27.6071 97.3577 27.6805 97.3577 27.7157C97.3577 27.8743 97.3665 28.0387 97.3841 28.2091C97.3959 28.3089 97.4017 28.397 97.4017 28.4734C97.4017 28.6554 97.3665 28.7465 97.296 28.7465C97.2314 28.7465 97.1727 28.6055 97.1198 28.3236L96.8203 26.6497C96.8027 27.6071 96.785 28.1063 96.7674 28.1474C96.7498 28.2237 96.7263 28.2619 96.6969 28.2619C96.6265 28.2619 96.553 28.1445 96.4767 27.9095C96.4238 27.7627 96.3827 27.6041 96.3534 27.4338C96.3064 27.0814 96.2447 26.9052 96.1683 26.9052L96.1155 26.914C95.9628 26.914 95.8747 26.3384 95.8512 25.1873C95.8336 24.5001 95.8013 24.1565 95.7543 24.1565C95.7132 24.1565 95.6603 24.4032 95.5957 24.8966C95.5252 25.5485 95.4371 25.8745 95.3314 25.8745C95.2609 25.8745 95.2257 25.7129 95.2257 25.3899C95.2257 24.9259 95.2786 24.2417 95.3843 23.3372C95.443 22.8145 95.5105 22.3858 95.5869 22.051C95.6926 21.5929 95.7455 21.311 95.7455 21.2053L95.7367 21.17C95.6897 21.17 95.537 21.3785 95.2786 21.7955C94.7089 22.6882 93.9953 23.7249 93.1378 24.9054C92.2803 26.08 91.6225 26.9228 91.1644 27.4338C90.5712 28.0564 90.116 28.4528 89.7988 28.6231C89.4699 28.7817 89.1528 28.861 88.8474 28.861ZM93.7192 23.302C93.7486 23.302 93.8279 23.2227 93.9571 23.0641C94.0393 22.9584 94.1215 22.8351 94.2038 22.6941C94.2919 22.5473 94.3565 22.4298 94.3976 22.3417C94.4446 22.2477 94.4681 22.1861 94.4681 22.1567C94.4681 22.145 94.4622 22.1391 94.4504 22.1391C94.4211 22.1391 94.2713 22.33 94.0011 22.7117C93.8014 23.0113 93.7016 23.2021 93.7016 23.2844C93.7016 23.2961 93.7075 23.302 93.7192 23.302ZM94.5562 22.0158C94.5855 22.0158 94.6589 21.9423 94.7764 21.7955C94.8527 21.7074 94.8909 21.6546 94.8909 21.6369H94.8821C94.8704 21.6369 94.8204 21.6722 94.7323 21.7427C94.5796 21.866 94.5033 21.9482 94.5033 21.9893C94.5033 22.0069 94.5209 22.0158 94.5562 22.0158ZM95.5517 20.7383C95.5693 20.7383 95.6251 20.6884 95.719 20.5886C95.8306 20.4887 95.8864 20.4036 95.8864 20.3331C95.8864 20.3037 95.8747 20.289 95.8512 20.289C95.7866 20.289 95.719 20.3654 95.6486 20.5181C95.5781 20.6356 95.5429 20.706 95.5429 20.7295C95.5429 20.7354 95.5458 20.7383 95.5517 20.7383Z" fill="#FFE500"/>
<path d="M81.8789 32.1823C81.3444 32.1823 80.8804 31.9532 80.4869 31.4951C80.1991 31.1662 80.0112 30.852 79.9231 30.5525C79.8585 30.3469 79.8262 29.9475 79.8262 29.3543C79.8262 28.5145 79.8585 27.842 79.9231 27.3369C80.0875 26.0272 80.4722 24.3915 81.0772 22.4298C81.4178 21.3139 81.7408 20.3654 82.0462 19.5842C82.3517 18.7972 82.5602 18.4037 82.6717 18.4037L82.7158 18.4125C82.7804 18.4125 82.8479 18.3567 82.9184 18.2451C82.9595 18.1688 82.9889 18.1306 83.0065 18.1306C83.03 18.1306 83.0418 18.16 83.0418 18.2187L83.0153 18.5271C83.0153 18.6739 83.0506 18.7473 83.121 18.7473L83.2003 18.7385C83.2649 18.7385 83.2972 18.7796 83.2972 18.8618C83.2972 18.9441 83.2561 19.0938 83.1739 19.3111C83.121 19.4462 83.0946 19.5314 83.0946 19.5666C83.0946 19.5784 83.0976 19.5842 83.1034 19.5842C83.121 19.5842 83.1651 19.5314 83.2356 19.4257C83.3648 19.273 83.4294 19.1408 83.4294 19.0292C83.4294 18.9118 83.4764 18.8266 83.5703 18.7737C83.5938 18.7561 83.6115 18.7473 83.6232 18.7473C83.6408 18.7473 83.6496 18.7649 83.6496 18.8002C83.6496 18.8413 83.6379 18.9029 83.6144 18.9852C83.5322 19.2318 83.4911 19.455 83.4911 19.6547C83.4911 19.8897 83.5557 20.1451 83.6849 20.4212C83.9022 20.8793 84.0108 21.1964 84.0108 21.3726V21.6546C84.0108 22.0011 83.9051 22.4739 83.6937 23.0729C83.447 23.7953 83.3061 24.2946 83.2708 24.5706C83.2708 24.7585 83.2326 24.9054 83.1563 25.0111C83.0506 25.199 82.8891 25.9126 82.6717 27.1519C82.5836 27.6335 82.5396 27.9536 82.5396 28.1122C82.5396 28.3471 82.5954 28.4645 82.707 28.4645C83.0241 28.4645 83.7965 27.5336 85.024 25.6718L85.4557 24.9935C85.6788 24.6352 85.8932 24.3415 86.0988 24.1125C86.3278 23.8599 86.5216 23.5839 86.6802 23.2844C86.8447 22.9848 87.0913 22.6236 87.4202 22.2008C87.8255 21.6839 88.0457 21.4255 88.081 21.4255V21.4343C88.081 21.4578 88.0545 21.5253 88.0017 21.6369C87.9899 21.6663 87.9841 21.6898 87.9841 21.7074C87.9841 21.7192 87.987 21.725 87.9929 21.725C88.034 21.725 88.1779 21.5899 88.4246 21.3198C88.7241 20.9909 88.9032 20.8264 88.962 20.8264C88.9796 20.8264 88.9884 20.8352 88.9884 20.8529C88.9884 20.9351 88.868 21.1788 88.6272 21.5841C88.3923 21.9893 88.2748 22.2272 88.2748 22.2977C88.2748 22.3094 88.2807 22.3153 88.2924 22.3153C88.3335 22.3153 88.4657 22.192 88.6889 21.9453C88.8885 21.728 89.0236 21.6193 89.0941 21.6193C89.1293 21.6193 89.147 21.6487 89.147 21.7074C89.147 21.8014 89.1 21.9717 89.006 22.2184C88.959 22.33 88.9355 22.421 88.9355 22.4915C88.9355 22.5737 88.9649 22.6324 89.0236 22.6677C89.0882 22.697 89.1205 22.7587 89.1205 22.8527C89.1147 23.0171 89.0295 23.3079 88.8651 23.7249C88.8122 23.8541 88.7681 23.9363 88.7329 23.9715C88.6683 24.0479 88.636 24.133 88.636 24.227C88.636 24.2388 88.6419 24.2446 88.6536 24.2446C88.7123 24.2446 88.8533 24.1154 89.0765 23.857C89.2703 23.628 89.4025 23.5134 89.4729 23.5134C89.5082 23.5193 89.5258 23.5487 89.5258 23.6015C89.5258 23.7307 89.423 23.995 89.2174 24.3944C89.0119 24.7879 88.6154 25.4017 88.0281 26.2357C87.4467 27.0697 86.8388 27.9007 86.2045 28.7288C85.5761 29.557 85.0856 30.156 84.7332 30.526C83.6584 31.6302 82.707 32.1823 81.8789 32.1823ZM82.5748 31.7506C82.5983 31.7506 82.6424 31.7389 82.707 31.7154C82.7716 31.686 82.8156 31.6596 82.8391 31.6361C82.8626 31.6126 82.8744 31.595 82.8744 31.5832C82.8744 31.5539 82.8538 31.5392 82.8127 31.5392C82.7657 31.5392 82.707 31.5744 82.6365 31.6449C82.5836 31.6919 82.5572 31.7242 82.5572 31.7418C82.5572 31.7477 82.5631 31.7506 82.5748 31.7506ZM81.1212 31.5304C81.1388 31.5304 81.1476 31.5157 81.1476 31.4863C81.1476 31.457 81.0537 31.363 80.8657 31.2044L80.575 30.9577C80.898 31.3395 81.0801 31.5304 81.1212 31.5304ZM83.1299 31.5216C83.2297 31.5216 83.4852 31.3307 83.8963 30.9489C84.1019 30.7492 84.2047 30.6406 84.2047 30.623C84.1929 30.623 84.1459 30.6553 84.0637 30.7199C83.7877 30.9489 83.5322 31.1427 83.2972 31.3013C83.168 31.3894 83.1034 31.457 83.1034 31.5039C83.1034 31.5157 83.1122 31.5216 83.1299 31.5216ZM80.5662 30.8608C80.5897 30.8608 80.6014 30.8432 80.6014 30.808C80.6014 30.7257 80.5545 30.5995 80.4605 30.4291C80.3783 30.2764 80.3195 30.2001 80.2843 30.2001C80.2725 30.2001 80.2667 30.2118 80.2667 30.2353C80.2667 30.3175 80.2872 30.4115 80.3283 30.5172C80.3694 30.6171 80.4135 30.6993 80.4605 30.7639C80.5075 30.8285 80.5427 30.8608 80.5662 30.8608ZM85.1649 16.3687C85.0122 16.3687 84.9124 16.3217 84.8654 16.2277C84.8125 16.1102 84.7244 16.0515 84.6011 16.0515C84.5482 16.0515 84.4631 16.0221 84.3456 15.9634C84.2281 15.9047 84.1107 15.8283 83.9932 15.7343C83.6996 15.5229 83.4911 15.4172 83.3677 15.4172C83.2444 15.4172 83.1563 15.3643 83.1034 15.2586V15.2322C83.1034 15.1089 83.2297 14.7623 83.4822 14.1926C83.7583 13.5759 83.9345 13.2676 84.0108 13.2676C84.0402 13.2676 84.1459 13.3146 84.328 13.4086C84.5101 13.4967 84.7186 13.6053 84.9535 13.7345C85.1884 13.8637 85.4057 13.99 85.6054 14.1133C85.811 14.2308 85.9578 14.3218 86.0459 14.3864C86.134 14.4511 86.2221 14.5186 86.3102 14.5891L85.6054 16.1748C85.5232 16.3041 85.3764 16.3687 85.1649 16.3687Z" fill="#FFE500"/>
<path d="M76.082 33.5566C75.7179 33.5566 75.386 33.4627 75.0865 33.2747C74.7811 33.0574 74.5462 32.8225 74.3817 32.5699C74.1938 32.2821 74.0557 31.8651 73.9676 31.3189C73.8795 30.7727 73.8355 30.2206 73.8355 29.6627L73.8531 28.6672C73.8531 28.303 73.8414 28.1151 73.8179 28.1033C73.7768 28.1033 73.674 28.2414 73.5095 28.5174C73.3157 28.8287 73.0162 29.1958 72.6109 29.6186C72.2115 30.0415 71.868 30.3469 71.5802 30.5349C71.1162 30.8109 70.6786 30.9489 70.2675 30.9489C69.4394 30.9489 68.8315 30.4996 68.4439 29.601C68.297 29.2016 68.2236 28.7171 68.2236 28.1474C68.2236 27.5131 68.3147 26.776 68.4967 25.9361C68.8433 24.3386 69.4012 22.7147 70.1706 21.0643C71.1397 18.9793 72.2233 17.4405 73.4214 16.4479C74.0205 15.9546 74.6724 15.7079 75.3772 15.7079C75.9058 15.7079 76.4373 15.8577 76.9718 16.1572C77.4651 16.4333 77.7118 16.63 77.7118 16.7475C77.7118 16.7768 77.6942 16.7915 77.659 16.7915C77.6061 16.7915 77.5239 16.7534 77.4123 16.677L77.3682 16.6506L77.3594 16.6594C77.3594 16.677 77.4475 16.7827 77.6237 16.9765C77.8704 17.2467 77.9937 17.4141 77.9937 17.4787C77.9937 17.4963 77.9849 17.5051 77.9673 17.5051C77.9086 17.5051 77.7529 17.3789 77.5004 17.1263C77.2067 16.8326 77.01 16.6858 76.9101 16.6858C76.8044 16.6858 76.7515 16.7122 76.7515 16.7651C76.7515 16.8297 76.8426 16.9384 77.0246 17.0911L77.3154 17.3465L76.9366 17.0911C76.4197 16.768 75.944 16.6065 75.5094 16.6065C75.386 16.6065 75.2744 16.6271 75.1746 16.6682C75.0806 16.7093 75.0336 16.7387 75.0336 16.7563C75.0336 16.7857 75.1716 16.8033 75.4477 16.8091C76.0761 16.8326 76.5519 17.0323 76.8749 17.4082C76.9277 17.4669 76.9542 17.5051 76.9542 17.5227L76.9454 17.5316C76.9219 17.5316 76.8308 17.4728 76.6723 17.3554C76.3199 17.1028 75.9792 16.9765 75.6503 16.9765C75.4976 16.9765 75.339 17.0059 75.1746 17.0646C75.016 17.1175 74.8516 17.2232 74.6812 17.3818C74.5109 17.5345 74.3788 17.6872 74.2848 17.8399C74.1908 17.9867 74.1438 18.1042 74.1438 18.1923L74.1526 18.2628C74.1703 18.3098 74.1791 18.3479 74.1791 18.3773C74.1791 18.436 74.1585 18.4654 74.1174 18.4654C74.0411 18.4654 73.9207 18.7473 73.7562 19.3111C73.6916 19.5343 73.6446 19.7399 73.6152 19.9278C73.5918 20.1158 73.3715 20.6267 72.9545 21.4607C72.4847 22.4416 72.0559 23.5134 71.6683 24.6763C71.498 25.1814 71.4128 25.5103 71.4128 25.663C71.4128 25.9038 71.4598 26.0242 71.5537 26.0242C71.7769 26.0242 72.1205 25.5544 72.5845 24.6147C72.8664 24.0626 73.3451 22.9848 74.0205 21.3814C74.3024 20.7178 74.5638 20.1393 74.8046 19.6459C75.0512 19.1467 75.2186 18.8472 75.3067 18.7473C75.4771 18.5594 75.7325 18.4654 76.0732 18.4654H76.223C76.7574 18.4654 77.0981 18.6768 77.2449 19.0997C77.3212 19.3229 77.3594 19.6577 77.3594 20.104C77.3594 20.5269 77.3242 21.0525 77.2537 21.681C76.8367 25.6043 76.6282 28.1298 76.6282 29.2574C76.6282 29.6333 76.6517 29.8536 76.6987 29.9182H76.7163C76.8103 29.9182 77.0012 29.7449 77.2889 29.3984C77.5944 29.0343 77.9174 28.5967 78.258 28.0857C78.5987 27.5748 78.863 27.1166 79.0509 26.7114C79.2212 26.3414 79.4474 25.942 79.7293 25.5133C80.0112 25.0845 80.3078 24.5207 80.6191 23.8218C80.9245 23.1581 81.1007 22.8263 81.1476 22.8263L81.1565 22.8527C81.1565 22.929 81.1036 23.0671 80.9979 23.2668C80.8687 23.5369 80.8041 23.6984 80.8041 23.7513C80.8041 23.7689 80.8099 23.7777 80.8217 23.7777C80.8687 23.7777 81.0008 23.5575 81.2181 23.117C81.3238 22.8997 81.4178 22.6794 81.5 22.4562C81.7291 21.8924 81.9141 21.5107 82.0551 21.311C82.1138 21.2287 82.152 21.1876 82.1696 21.1876C82.1872 21.1876 82.196 21.2023 82.196 21.2317C82.196 21.3374 82.0463 21.8337 81.7467 22.7205C81.4531 23.5898 81.2592 24.1272 81.1653 24.3327C81.1183 24.4091 81.0948 24.4737 81.0948 24.5266C81.0948 24.5442 81.1036 24.553 81.1212 24.553C81.1682 24.553 81.365 24.183 81.7115 23.4429C81.9993 22.8204 82.1813 22.5091 82.2577 22.5091C82.3047 22.5091 82.3282 22.5766 82.3282 22.7117C82.3282 22.9349 82.2577 23.2403 82.1167 23.628C81.9875 23.9862 81.9229 24.2153 81.9229 24.3151C81.9229 24.3621 81.9405 24.3856 81.9758 24.3856C81.9875 24.3856 82.0051 24.3827 82.0286 24.3768C82.0521 24.365 82.0727 24.3592 82.0903 24.3592C82.1314 24.3592 82.152 24.3885 82.152 24.4473C82.152 24.5706 82.0521 24.9377 81.8524 25.5485C81.5412 26.4882 81.2974 27.1255 81.1212 27.4602C81.0449 27.6129 81.0067 27.7186 81.0067 27.7774C81.0067 27.795 81.0126 27.8038 81.0243 27.8038L81.0507 27.795C81.0919 27.7656 81.1594 27.6746 81.2534 27.5219C81.3532 27.3692 81.456 27.1901 81.5617 26.9845C81.6674 26.7789 81.779 26.5734 81.8965 26.3678C82.0198 26.1564 82.1226 25.9919 82.2048 25.8745C82.2871 25.7511 82.3722 25.6278 82.4603 25.5044L82.381 25.8833C82.3282 26.1299 82.1755 26.5235 81.9229 27.0638C81.6704 27.6041 81.3826 28.1709 81.0596 28.7641C80.7365 29.3514 80.4399 29.8448 80.1698 30.2441C79.0773 31.8358 78.1376 32.8313 77.3506 33.2307C76.8925 33.448 76.4696 33.5566 76.082 33.5566Z" fill="#FFE500"/>
<path d="M63.2551 30.2618C61.7985 30.2383 60.9058 30.2089 60.5769 30.1737C60.3713 30.1384 60.2686 30.0679 60.2686 29.9622C60.2686 29.927 60.2744 29.8859 60.2862 29.8389C60.3155 29.6686 60.3596 28.9227 60.4183 27.6012C60.4653 26.4089 60.5563 25.0963 60.6914 23.6632C60.8324 22.3124 60.9087 20.9175 60.9205 19.4785C60.9205 17.8223 60.9587 16.9942 61.035 16.9942H61.0438C61.0673 17.0059 61.1172 17.0676 61.1936 17.1792C61.2876 17.3201 61.3639 17.3906 61.4226 17.3906C61.4579 17.3906 61.4902 17.3612 61.5196 17.3025C61.5489 17.2379 61.5753 17.2056 61.5988 17.2056C61.6223 17.2115 61.6458 17.2526 61.6693 17.3289C61.8396 17.8575 61.9365 18.1277 61.96 18.1394H61.9689C61.9865 18.1394 61.9953 18.0983 61.9953 18.0161C61.9953 17.8634 61.96 17.6402 61.8896 17.3465C61.8543 17.2291 61.8367 17.1292 61.8367 17.047C61.8367 17.0118 61.8426 16.9942 61.8543 16.9942C61.8837 16.9942 61.9248 17.0588 61.9777 17.188C62.0305 17.3113 62.0746 17.4493 62.1098 17.602C62.2743 18.1835 62.4093 18.4742 62.5151 18.4742C62.5268 18.4742 62.5415 18.4683 62.5591 18.4566C62.5767 18.439 62.6267 18.3479 62.7089 18.1835C62.797 18.0132 62.8998 17.8105 63.0172 17.5756C63.5928 16.3833 64.2477 15.7872 64.9818 15.7872C65.3518 15.7872 65.7395 15.934 66.1447 16.2277C66.3914 16.3863 66.6028 16.586 66.779 16.8268C66.9611 17.0676 67.199 17.4699 67.4926 18.0337C67.8509 18.7033 68.2121 19.2553 68.5762 19.69C68.9404 20.1187 69.2311 20.3419 69.4484 20.3595C69.5541 20.3713 69.6451 20.4417 69.7215 20.5709C69.7626 20.6532 69.8096 20.7002 69.8625 20.7119C69.9212 20.7236 69.9682 20.7295 70.0034 20.7295C70.0856 20.7295 70.1943 20.7148 70.3294 20.6855C70.7816 20.5915 71.0841 20.5445 71.2368 20.5445C71.3131 20.5445 71.3513 20.5563 71.3513 20.5798C71.3513 20.6385 71.2221 20.7178 70.9637 20.8176C70.4703 21.0173 70.0445 21.1289 69.6863 21.1524C69.6275 21.1583 69.5982 21.1641 69.5982 21.17C69.5982 21.1876 69.7362 21.2111 70.0122 21.2405C70.2941 21.2699 70.4733 21.2992 70.5496 21.3286C70.626 21.358 70.6642 21.3932 70.6642 21.4343C70.6642 21.4989 70.5819 21.5606 70.4175 21.6193C70.2941 21.6663 70.1561 21.7015 70.0034 21.725C69.6921 21.7661 69.5365 21.8337 69.5365 21.9277C69.5365 21.9394 69.5394 21.9541 69.5453 21.9717C69.557 21.9893 69.5629 22.0069 69.5629 22.0246C69.5629 22.1009 69.4366 22.1391 69.1841 22.1391C68.8963 22.1391 68.5733 22.0745 68.215 21.9453C67.8568 21.8102 67.5308 21.6369 67.2371 21.4255L66.7614 21.0731C66.8671 21.1906 66.9699 21.308 67.0697 21.4255C67.1696 21.5371 67.3105 21.6663 67.4926 21.8131C67.6512 21.9482 68.0418 22.2331 68.6643 22.6677C68.5175 22.6383 68.3736 22.6119 68.2326 22.5884C68.0976 22.559 67.9507 22.515 67.7921 22.4562C67.6336 22.3916 67.4985 22.327 67.3869 22.2624C67.0815 22.0627 66.7262 21.7427 66.3209 21.3022C65.9157 20.8617 65.6337 20.4917 65.4752 20.1921C65.3166 19.8867 65.2109 19.734 65.158 19.734C65.0993 19.734 64.9877 20.0012 64.8232 20.5357C64.6588 21.0643 64.4826 21.728 64.2946 22.5267C64.1831 23.0201 64.0392 23.9187 63.863 25.2225C63.675 26.5616 63.4724 28.2414 63.2551 30.2618ZM63.581 24.4032C63.5928 24.4032 63.6045 24.3973 63.6163 24.3856C63.628 24.368 63.6339 24.3445 63.6339 24.3151C63.6339 24.2858 63.6339 24.2652 63.6339 24.2535C63.6339 24.2182 63.6251 24.183 63.6075 24.1477C63.5957 24.1066 63.584 24.0861 63.5722 24.0861C63.5546 24.0861 63.5429 24.1331 63.537 24.227C63.537 24.3445 63.5517 24.4032 63.581 24.4032ZM63.678 23.7865C63.7543 23.7865 63.8688 23.302 64.0215 22.3329C63.863 22.8028 63.7661 23.114 63.7308 23.2668C63.6838 23.4547 63.6603 23.6015 63.6603 23.7072C63.6603 23.7601 63.6662 23.7865 63.678 23.7865Z" fill="#FFE500"/>
<path d="M24.2452 35.7238H23.5756C22.9413 35.7238 22.4685 35.6915 22.1572 35.6269C21.3115 35.4038 20.6302 34.8664 20.1133 34.0147C20.0664 33.9325 20.0282 33.8914 19.9988 33.8914C19.9577 33.8914 19.9137 34.0236 19.8667 34.2878C19.8314 34.4758 19.7903 34.6402 19.7433 34.7812C19.6729 34.9926 19.6229 35.0984 19.5936 35.0984C19.5759 35.0984 19.5642 35.066 19.5583 35.0014C19.5583 34.8899 19.62 34.5933 19.7433 34.1116C19.8256 33.8004 19.8667 33.5008 19.8667 33.213C19.8667 33.0603 19.8549 32.9106 19.8314 32.7637C19.8138 32.611 19.805 32.4202 19.805 32.1911C19.805 31.78 19.8167 31.4276 19.8402 31.1339C19.8755 30.8109 19.8931 30.5349 19.8931 30.3058C19.8814 30.1296 19.8432 30.0063 19.7786 29.9358C19.7198 29.8594 19.6905 29.8125 19.6905 29.7948L19.7786 29.8301C19.8138 29.8477 19.852 29.8565 19.8931 29.8565C19.9225 29.8506 19.9371 29.8271 19.9371 29.786C19.9371 29.6979 19.9019 29.6539 19.8314 29.6539C19.7668 29.6539 19.7052 29.2633 19.6464 28.4822C19.5877 27.6658 19.4908 27.0403 19.3557 26.6057C19.1854 26.0712 18.8594 25.4457 18.3778 24.7292C18.043 24.23 17.814 23.9803 17.6906 23.9803C17.673 23.9803 17.6642 23.9892 17.6642 24.0068C17.6642 24.0714 17.7523 24.2358 17.9285 24.5001C18.0166 24.6176 18.0607 24.6881 18.0607 24.7116H18.0518C18.0166 24.7116 17.858 24.5765 17.5761 24.3063C17.0182 23.766 16.3134 23.3196 15.4618 22.9672C14.6101 22.609 13.4795 22.2859 12.07 21.9981C11.0245 21.7808 10.2405 21.6017 9.71775 21.4607C9.19503 21.3198 8.79565 21.1759 8.51961 21.0291C7.26274 20.3654 6.63431 19.3963 6.63431 18.1218L6.64312 17.6813C6.64312 17.3877 6.61962 17.235 6.57264 17.2232C6.52565 17.2232 6.50216 17.4376 6.50216 17.8663C6.50216 18.5006 6.5374 18.9587 6.60788 19.2407C6.66074 19.4521 6.76058 19.6606 6.90741 19.8662C7.22457 20.3947 7.70617 20.8206 8.35222 21.1436C9.00415 21.4666 10.0966 21.8249 11.6295 22.2184C12.4576 22.4474 13.1829 22.6706 13.8055 22.8879C14.2401 23.0406 14.4574 23.1287 14.4574 23.1522C14.4574 23.1581 14.4516 23.161 14.4398 23.161C14.4046 23.161 14.0815 23.0935 13.4707 22.9584C13.0655 22.8762 12.6074 22.7793 12.0964 22.6677C10.0878 22.2624 8.65469 21.8102 7.7972 21.311C6.94559 20.8117 6.40232 20.1099 6.16739 19.2054C6.0558 18.8413 6 18.4595 6 18.0601C6.00587 17.696 6.08516 17.2291 6.23787 16.6594C6.85455 14.3982 8.04975 12.2134 9.82346 10.1049C11.468 8.21369 13.5295 6.53689 16.008 5.07446C18.4865 3.60616 21.194 2.43151 24.1306 1.55053C27.0672 0.663674 30.045 0.152704 33.0638 0.0176197C33.4397 0.00587322 33.8067 0 34.165 0C36.0033 0 37.639 0.187943 39.0721 0.563829C40.7929 1.02194 42.132 1.72966 43.0894 2.687C43.6238 3.20971 43.988 3.68544 44.1818 4.11419C44.3756 4.54293 44.4725 5.08621 44.4725 5.74401C44.4725 6.39006 44.405 6.90984 44.2699 7.30335C43.7942 8.54259 42.734 9.91693 41.0895 11.4263C39.445 12.9299 37.3072 14.4775 34.676 16.0691C33.6717 16.6741 33.1695 17 33.1695 17.047C33.2459 17.047 33.4455 17.0147 33.7686 16.9501C34.1503 16.8796 34.6173 16.7827 35.1693 16.6594C43.4741 14.8563 49.9933 13.8314 54.7271 13.5848C55.1089 13.5671 55.476 13.5583 55.8284 13.5583C59.7106 13.5583 61.6517 14.5509 61.6517 16.536C61.6517 18.1394 60.5064 19.872 58.2158 21.7338C56.0486 23.4958 52.7596 25.4751 48.3488 27.6717C44.402 29.6216 40.3436 31.3277 36.1737 32.7902C32.0095 34.2467 28.5209 35.1864 25.7076 35.6093C25.1261 35.6857 24.6387 35.7238 24.2452 35.7238ZM23.6813 33.0809C24.1277 33.0809 24.762 33.0163 25.5842 32.8871C27.957 32.4936 30.9582 31.6889 34.5879 30.4732C38.2234 29.2516 41.3509 27.9947 43.9704 26.7026C44.5224 26.4265 45.1802 26.1299 45.9438 25.8128C47.4473 25.1726 48.9538 24.4326 50.4632 23.5927C51.9785 22.7528 53.3675 21.8983 54.6302 21.0291C55.8989 20.1539 56.9237 19.3464 57.7049 18.6064C58.486 17.8663 58.8766 17.2937 58.8766 16.8884C58.8766 16.6594 58.6563 16.5037 58.2158 16.4215C57.7754 16.3334 57.0295 16.2894 55.9781 16.2894C54.1809 16.2894 51.8317 16.4802 48.9303 16.862C46.1581 17.232 43.6385 17.6754 41.3715 18.1923C40.8605 18.3215 40.4817 18.4008 40.235 18.4302C39.5478 18.5476 37.3072 19.0204 33.5131 19.8485C32.0037 20.1833 30.8613 20.4417 30.0861 20.6238C29.4165 20.7883 28.6765 20.9645 27.866 21.1524C26.2332 21.5283 25.2788 21.7867 25.0028 21.9277C24.8383 22.0158 24.7561 22.1009 24.7561 22.1831C24.7561 22.2477 24.7708 22.3035 24.8002 22.3505C24.8295 22.3975 24.8706 22.4239 24.9235 22.4298C24.9764 22.4298 25.0028 22.4386 25.0028 22.4562C25.0028 22.4739 24.9852 22.4944 24.9499 22.5179C24.8677 22.5825 24.7943 22.6677 24.7297 22.7734C24.6651 22.8732 24.624 22.9525 24.6064 23.0113C24.5946 23.07 24.5887 23.1082 24.5887 23.1258C24.5887 23.1669 24.6034 23.1875 24.6328 23.1875C24.6621 23.1875 24.6768 23.1992 24.6768 23.2227C24.6768 23.2873 24.621 23.3872 24.5094 23.5222C24.3332 23.7572 24.2452 23.948 24.2452 24.0949C24.2452 24.2358 24.204 24.4091 24.1218 24.6147C24.0455 24.8143 23.7841 25.6337 23.3377 27.0726C23.0147 28.1122 22.8385 28.7259 22.8091 28.9139C22.7857 29.0431 22.7739 29.1341 22.7739 29.187C22.7739 29.2281 22.7768 29.2574 22.7827 29.2751C22.7945 29.2927 22.8003 29.325 22.8003 29.372C22.8003 29.5599 22.7563 29.8829 22.6682 30.341C22.539 31.0165 22.4744 31.548 22.4744 31.9356C22.4744 32.3291 22.5507 32.6169 22.7034 32.799C22.862 32.9811 23.0588 33.075 23.2937 33.0809C23.5286 33.0809 23.6578 33.0809 23.6813 33.0809ZM20.1222 29.416C20.1398 29.416 20.1721 29.3543 20.2191 29.231C20.2719 29.1018 20.2983 28.9197 20.2983 28.6848C20.2983 28.4557 20.2719 28.168 20.2191 27.8214C20.0781 26.6468 19.7492 25.6483 19.2324 24.8261C18.9739 24.415 18.645 24.0038 18.2457 23.5927C17.8463 23.1757 17.4763 22.8644 17.1356 22.6589C16.9947 22.5766 16.9183 22.5355 16.9066 22.5355C16.9066 22.5414 16.9447 22.5708 17.0211 22.6236C17.4087 22.9114 17.8257 23.3137 18.2721 23.8306C18.7185 24.3416 19.0474 24.8055 19.2588 25.2225C19.4937 25.71 19.6846 26.2797 19.8314 26.9316C19.9783 27.5777 20.0575 28.1973 20.0693 28.7905C20.0752 29.2075 20.0928 29.416 20.1222 29.416ZM20.6684 27.5924C20.6801 27.5924 20.6919 27.5777 20.7036 27.5483C20.7271 27.4778 20.7565 27.3927 20.7917 27.2928C20.8269 27.193 20.8592 27.0961 20.8886 27.0021C20.9238 26.9081 21.1999 26.2239 21.7167 24.9494C22.1513 23.8688 22.4744 23.0788 22.6858 22.5796C22.6976 22.562 22.7034 22.5443 22.7034 22.5267C22.7034 22.4915 22.6653 22.4739 22.5889 22.4739C22.5302 22.4739 22.4538 22.4827 22.3598 22.5003C22.2717 22.5179 22.1866 22.5267 22.1044 22.5267C21.799 22.5267 21.5259 22.4239 21.285 22.2184C20.9796 21.96 20.8269 21.6252 20.8269 21.2141C20.8269 21.0849 20.9092 20.9116 21.0736 20.6943C21.2381 20.4711 21.426 20.2655 21.6374 20.0776C21.8548 19.8838 22.0515 19.7575 22.2277 19.6988C22.3217 19.6635 22.4773 19.5989 22.6946 19.505C22.9178 19.4051 23.1557 19.2906 23.4082 19.1614C23.6666 19.0322 23.8634 18.9235 23.9985 18.8354C24.1394 18.7414 24.251 18.6298 24.3332 18.5006C24.4155 18.3714 24.5094 18.1864 24.6152 17.9456C25.085 16.8943 25.5431 15.7255 25.9895 14.4393C26.4359 13.1531 26.7442 12.1135 26.9145 11.3206C26.9909 10.9271 27.0555 10.7304 27.1083 10.7304C27.126 10.7304 27.1406 10.7539 27.1524 10.8008C27.17 10.842 27.1876 10.8625 27.2053 10.8625C27.2699 10.8625 27.3286 10.6247 27.3814 10.1489C27.4049 9.88463 27.4167 9.61152 27.4167 9.32961C27.4167 9.04769 27.4431 8.90673 27.496 8.90673C27.5136 8.90673 27.5342 8.91848 27.5576 8.94197C27.5929 8.95372 27.6105 9.04769 27.6105 9.22389C27.6105 9.62914 27.4578 10.795 27.1524 12.7214C27.3814 12.3514 27.5077 12.1664 27.5312 12.1664C27.5371 12.1664 27.54 12.1693 27.54 12.1752C27.54 12.3514 27.4431 12.7772 27.2493 13.4526C27.0555 14.128 26.8176 14.8739 26.5357 15.6903C26.1422 16.8003 25.9454 17.42 25.9454 17.5492C25.9454 17.5609 25.9484 17.5668 25.9543 17.5668C25.9836 17.5668 26.1275 17.232 26.3859 16.5625C26.9439 15.0765 27.4196 13.6053 27.8131 12.1488C27.9717 11.5614 28.0686 11.2678 28.1039 11.2678C28.1097 11.2678 28.1127 11.2795 28.1127 11.303C28.1127 11.4968 27.9629 12.1194 27.6634 13.1707C27.4167 14.0458 27.1083 15.0736 26.7383 16.2541C26.5152 16.9354 26.4036 17.3436 26.4036 17.4787C26.4036 17.5316 26.4212 17.558 26.4564 17.558C26.5504 17.558 27.1641 17.2379 28.2977 16.5977C30.7233 15.241 32.6292 14.1222 34.0152 13.2412C36.435 11.7024 38.3027 10.3075 39.6183 9.0565C40.9339 7.80551 41.6357 6.75714 41.7238 5.91139C41.7415 5.78218 41.7503 5.67353 41.7503 5.58543C41.7503 5.37987 41.6945 5.25947 41.5829 5.22423C41.4772 5.18311 41.4243 5.13319 41.4243 5.07446L41.4419 5.0216C41.4419 4.88652 41.1806 4.61929 40.6579 4.21991C39.8474 3.59735 38.5288 3.15098 36.7022 2.88081C36.1854 2.81621 35.4307 2.78391 34.4381 2.78391C33.704 2.78391 32.9757 2.80152 32.2533 2.83676C31.4252 2.872 30.7879 2.9278 30.3416 3.00415L28.1831 3.40059C24.8119 4.04665 21.3996 5.32114 17.9461 7.22406C17.0416 7.7409 16.0344 8.42513 14.9244 9.27675C13.8202 10.1284 12.901 10.9212 12.1669 11.6554C10.816 13.112 9.78529 14.8152 9.07463 16.7651C8.88081 17.3172 8.78391 17.7547 8.78391 18.0778C8.78391 18.5359 9.02471 18.8795 9.50631 19.1085C9.75299 19.2436 10.3697 19.455 11.3564 19.7428C11.9554 19.919 12.8423 20.1745 14.0169 20.5093C14.9449 20.7853 15.7554 21.0937 16.4485 21.4343C16.8185 21.6164 17.1826 21.8307 17.5409 22.0774C17.905 22.3241 18.1957 22.5473 18.413 22.747C18.6304 22.9408 18.739 23.0788 18.739 23.161C18.739 23.1728 18.7361 23.1845 18.7302 23.1963C18.7243 23.2021 18.7214 23.2139 18.7214 23.2315C18.7214 23.2491 18.7243 23.2726 18.7302 23.302C18.7419 23.3314 18.7654 23.3578 18.8007 23.3813C18.8418 23.4048 18.8682 23.4165 18.88 23.4165C18.8917 23.4165 18.8976 23.4106 18.8976 23.3989C18.8976 23.3813 18.8829 23.349 18.8535 23.302L18.8359 23.2579C18.8359 23.2462 18.8389 23.2403 18.8447 23.2403C18.8682 23.2403 18.9299 23.2814 19.0297 23.3637C19.1942 23.5164 19.2793 23.6162 19.2852 23.6632C19.2911 23.7102 19.294 23.7366 19.294 23.7425C19.294 23.766 19.2852 23.7777 19.2676 23.7777C19.2382 23.7777 19.1766 23.7425 19.0826 23.672C18.9945 23.6015 18.9416 23.5663 18.924 23.5663C18.924 23.5839 18.9593 23.6338 19.0297 23.7161C19.1237 23.8453 19.2147 23.9099 19.3028 23.9099H19.3293C19.4115 23.9099 19.5554 24.0919 19.7609 24.4561C19.8843 24.6851 19.946 24.8085 19.946 24.8261C19.9401 24.8261 19.9283 24.8143 19.9107 24.7909C19.6582 24.4326 19.5172 24.2535 19.4878 24.2535C19.482 24.2535 19.479 24.2593 19.479 24.2711C19.479 24.3063 19.5378 24.4385 19.6552 24.6675C19.8432 25.0258 19.9753 25.2049 20.0517 25.2049C20.0634 25.2049 20.0722 25.199 20.0781 25.1873C20.0898 25.1697 20.1045 25.1609 20.1222 25.1609C20.1574 25.1609 20.1926 25.2167 20.2279 25.3283C20.2396 25.387 20.2455 25.431 20.2455 25.4604C20.2455 25.5074 20.2337 25.5309 20.2102 25.5309C20.1926 25.5309 20.1721 25.525 20.1486 25.5133C20.131 25.4956 20.1133 25.4868 20.0957 25.4868C20.0781 25.4868 20.0693 25.4986 20.0693 25.5221C20.0693 25.5456 20.0781 25.5867 20.0957 25.6454C20.1192 25.6983 20.1603 25.8363 20.2191 26.0595C20.2778 26.2826 20.3395 26.5323 20.4041 26.8083C20.5215 27.331 20.6096 27.5924 20.6684 27.5924ZM20.5098 26.3238C20.4745 26.3238 20.4334 26.268 20.3864 26.1564C20.3453 26.0389 20.3248 25.9214 20.3248 25.804C20.3248 25.7805 20.3307 25.7687 20.3424 25.7687C20.3659 25.7746 20.4041 25.8392 20.4569 25.9626C20.5098 26.1211 20.5362 26.2239 20.5362 26.2709C20.5362 26.3061 20.5274 26.3238 20.5098 26.3238ZM27.6017 11.999C27.5723 11.999 27.5576 11.9403 27.5576 11.8228C27.5635 11.7288 27.5753 11.6818 27.5929 11.6818C27.6046 11.6818 27.6164 11.7024 27.6281 11.7435C27.6457 11.7787 27.6546 11.814 27.6546 11.8492C27.6546 11.9491 27.6369 11.999 27.6017 11.999ZM32.8083 17.7342C32.8612 17.7342 32.9052 17.7224 32.9404 17.6989C32.9816 17.6696 33.0021 17.6402 33.0021 17.6108C33.0021 17.5639 32.9728 17.5404 32.914 17.5404C32.8847 17.5404 32.8465 17.5492 32.7995 17.5668C32.7525 17.5785 32.7114 17.5991 32.6762 17.6285C32.6409 17.652 32.6233 17.6696 32.6233 17.6813C32.6233 17.7166 32.685 17.7342 32.8083 17.7342ZM33.8126 17.4699C33.936 17.4699 33.9976 17.4552 33.9976 17.4258C33.9976 17.3847 33.9595 17.3642 33.8831 17.3642C33.8361 17.3642 33.7891 17.373 33.7421 17.3906C33.701 17.4082 33.6805 17.4229 33.6805 17.4346C33.6805 17.4523 33.7245 17.464 33.8126 17.4699ZM32.0154 17.3113C32.0976 17.3113 32.5646 17.0588 33.4162 16.5537C33.9565 16.2365 34.2267 16.0544 34.2267 16.0075C34.2267 16.0016 34.2237 15.9986 34.2179 15.9986C34.1474 15.9986 33.7715 16.1954 33.0902 16.5889C32.3561 17.0176 31.989 17.2526 31.989 17.2937C31.989 17.3054 31.9978 17.3113 32.0154 17.3113ZM35.6274 17.0823C35.8624 17.0588 36.3234 16.9736 37.0106 16.8268L38.0061 16.6241C39.3687 16.3364 40.05 16.166 40.05 16.1132C40.05 16.1073 40.047 16.1044 40.0412 16.1044C39.8415 16.1044 39.075 16.2394 37.7418 16.5096C36.2735 16.815 35.5393 17 35.5393 17.0646C35.5393 17.0764 35.554 17.0823 35.5834 17.0823H35.6274ZM41.301 15.9458C41.4184 15.9458 41.4772 15.9311 41.4772 15.9017C41.4772 15.8665 41.439 15.8459 41.3626 15.8401C41.3157 15.8401 41.2687 15.8489 41.2217 15.8665C41.1806 15.8841 41.16 15.8988 41.16 15.9105C41.16 15.9282 41.207 15.9399 41.301 15.9458ZM34.5526 15.796C34.5938 15.796 34.7112 15.7402 34.905 15.6286C35.2046 15.4642 35.3543 15.3555 35.3543 15.3027C35.3543 15.2968 35.3514 15.2939 35.3455 15.2939C35.2927 15.2939 35.1693 15.3497 34.9755 15.4612C34.676 15.6374 34.5262 15.7432 34.5262 15.7784C34.5262 15.7901 34.535 15.796 34.5526 15.796ZM41.997 15.8136C42.0733 15.8136 42.1115 15.799 42.1115 15.7696C42.1115 15.7344 42.0733 15.7167 41.997 15.7167C41.95 15.7167 41.903 15.7255 41.856 15.7432C41.8149 15.7608 41.7943 15.7755 41.7943 15.7872C41.7943 15.8048 41.8619 15.8136 41.997 15.8136Z" fill="#FFE500"/>
<path d="M0.243359 42.2021H4.39375C4.72578 42.2021 5.00898 42.2184 5.24336 42.251C5.47773 42.2803 5.68769 42.334 5.87324 42.4121C6.05879 42.4902 6.20853 42.5895 6.32246 42.71C6.43639 42.8271 6.52917 42.9834 6.60078 43.1787C6.67565 43.374 6.72773 43.5954 6.75703 43.8428C6.78633 44.0869 6.80098 44.3831 6.80098 44.7314C6.80098 45.0765 6.78633 45.3711 6.75703 45.6152C6.73099 45.8594 6.68216 46.0791 6.61055 46.2744C6.54219 46.4665 6.45267 46.6243 6.34199 46.748C6.23457 46.8685 6.09134 46.9694 5.9123 47.0508C5.73652 47.1322 5.53633 47.1924 5.31172 47.2314C5.08711 47.2673 4.81693 47.29 4.50117 47.2998H1.94258V50H0.243359V42.2021ZM1.94258 45.8301H3.85176C4.05358 45.8301 4.21309 45.8268 4.33027 45.8203C4.44746 45.8138 4.55814 45.7959 4.6623 45.7666C4.76647 45.7373 4.84134 45.7015 4.88691 45.6592C4.93574 45.6169 4.97806 45.5501 5.01387 45.459C5.04967 45.3678 5.07083 45.2686 5.07734 45.1611C5.08711 45.0537 5.09199 44.9105 5.09199 44.7314C5.09199 44.5492 5.08711 44.4043 5.07734 44.2969C5.07083 44.1862 5.04967 44.0853 5.01387 43.9941C4.97806 43.8997 4.93574 43.8314 4.88691 43.7891C4.84134 43.7467 4.76647 43.7109 4.6623 43.6816C4.56139 43.6491 4.45072 43.6296 4.33027 43.623C4.20983 43.6133 4.05032 43.6084 3.85176 43.6084H1.94258V45.8301ZM9.78223 48.6084V50H8.87402C8.5778 50 8.34017 49.9805 8.16113 49.9414C7.98535 49.9023 7.84049 49.8275 7.72656 49.7168C7.61589 49.6061 7.54102 49.4661 7.50195 49.2969C7.46289 49.1243 7.44336 48.8949 7.44336 48.6084V42.002H8.99121V48.0713C8.99121 48.1787 8.99609 48.2617 9.00586 48.3203C9.01888 48.3757 9.03678 48.4261 9.05957 48.4717C9.08561 48.514 9.13118 48.5449 9.19629 48.5645C9.26139 48.5807 9.33626 48.5921 9.4209 48.5986C9.50553 48.6051 9.62598 48.6084 9.78223 48.6084ZM13.1443 43.8818C13.5805 43.8818 13.9435 43.903 14.2332 43.9453C14.5229 43.9844 14.7719 44.0495 14.9803 44.1406C15.1919 44.2318 15.353 44.362 15.4637 44.5312C15.5776 44.7005 15.659 44.9023 15.7078 45.1367C15.7599 45.3678 15.7859 45.6592 15.7859 46.0107V50H14.243V49.1211C14.1323 49.4661 13.9321 49.7184 13.6424 49.8779C13.3527 50.0342 12.9474 50.1156 12.4266 50.1221C12.1173 50.1318 11.8536 50.1286 11.6355 50.1123C11.4174 50.096 11.2221 50.0602 11.0496 50.0049C10.8771 49.9528 10.7371 49.8828 10.6297 49.7949C10.5255 49.707 10.4376 49.5915 10.366 49.4482C10.2977 49.3018 10.2505 49.1357 10.2244 48.9502C10.1984 48.7614 10.1854 48.5352 10.1854 48.2715C10.1854 47.9818 10.2065 47.7409 10.2488 47.5488C10.2911 47.3535 10.3595 47.1859 10.4539 47.0459C10.5483 46.9027 10.6834 46.7936 10.8592 46.7188C11.0382 46.6439 11.2482 46.5902 11.4891 46.5576C11.7332 46.5218 12.0376 46.5023 12.4021 46.499H14.243V46.2402C14.243 46.0514 14.2397 45.9017 14.2332 45.791C14.2267 45.6771 14.2072 45.5729 14.1746 45.4785C14.1453 45.3809 14.1079 45.3092 14.0623 45.2637C14.02 45.2181 13.9516 45.179 13.8572 45.1465C13.7661 45.1139 13.6668 45.0944 13.5594 45.0879C13.452 45.0814 13.3071 45.0781 13.1248 45.0781C12.8286 45.0781 12.6072 45.0863 12.4607 45.1025C12.3143 45.1188 12.1938 45.166 12.0994 45.2441C12.0083 45.319 11.9546 45.415 11.9383 45.5322C11.922 45.6462 11.9171 45.8219 11.9236 46.0596H10.3758V45.8496C10.3758 45.5762 10.3921 45.3434 10.4246 45.1514C10.4572 44.9593 10.5158 44.7884 10.6004 44.6387C10.685 44.4857 10.7924 44.3636 10.9227 44.2725C11.0561 44.1781 11.2286 44.1016 11.4402 44.043C11.6551 43.9811 11.896 43.9388 12.1629 43.916C12.4331 43.8932 12.7602 43.8818 13.1443 43.8818ZM11.8064 48.291C11.8064 48.3854 11.8097 48.4635 11.8162 48.5254C11.8227 48.584 11.8357 48.6426 11.8553 48.7012C11.8781 48.7565 11.9074 48.7972 11.9432 48.8232C11.979 48.846 12.0262 48.8721 12.0848 48.9014C12.1466 48.9274 12.2199 48.9421 12.3045 48.9453C12.3924 48.9486 12.4965 48.9551 12.617 48.9648C12.7374 48.9714 12.8758 48.9697 13.032 48.96C13.4552 48.9502 13.7612 48.8786 13.95 48.7451C14.1388 48.6117 14.2365 48.4001 14.243 48.1104V47.6904L13.032 47.7002C12.7911 47.7035 12.6056 47.71 12.4754 47.7197C12.3484 47.7262 12.2329 47.7393 12.1287 47.7588C12.0245 47.7783 11.9529 47.8125 11.9139 47.8613C11.8781 47.9069 11.8504 47.9622 11.8309 48.0273C11.8146 48.0892 11.8064 48.1771 11.8064 48.291ZM19.8658 50.4688C19.7714 50.7845 19.6705 51.0368 19.5631 51.2256C19.4589 51.4144 19.3206 51.569 19.148 51.6895C18.9788 51.8099 18.7818 51.8913 18.5572 51.9336C18.3326 51.9792 18.0445 52.002 17.693 52.002H16.7555V50.6787H17.5465C17.7776 50.6787 17.942 50.6657 18.0396 50.6396C18.1406 50.6169 18.2187 50.5713 18.274 50.5029C18.3326 50.4378 18.3896 50.3206 18.4449 50.1514L18.5523 49.7998H17.6637L15.8131 43.999H17.4244L18.8648 48.5791H18.9234L20.276 43.999H21.8043L19.8658 50.4688ZM26.8244 50V43.6719H24.3439V42.2021H31.0236V43.6719H28.5236V50H26.8244ZM31.3047 43.999H32.8525V45.0391C32.9437 44.681 33.1341 44.4189 33.4238 44.2529C33.7168 44.0837 34.1302 43.999 34.6641 43.999H35.3232V45.3906L34.0049 45.3809C33.598 45.3809 33.3034 45.4655 33.1211 45.6348C32.9421 45.804 32.8525 46.0791 32.8525 46.46V50H31.3047V43.999ZM35.7313 43.999H37.2791V50H35.7313V43.999ZM35.6678 43.1982V42.002H37.3377V43.1982H35.6678ZM43.7369 43.999L41.774 50H39.4449L37.6139 43.999H39.2252L40.6266 48.7402H40.6852L42.1842 43.999H43.7369ZM44.0766 43.999H45.6244V50H44.0766V43.999ZM44.0131 43.1982V42.002H45.683V43.1982H44.0131ZM49.2209 43.8818C49.6571 43.8818 50.0201 43.903 50.3098 43.9453C50.5995 43.9844 50.8485 44.0495 51.0568 44.1406C51.2684 44.2318 51.4296 44.362 51.5402 44.5312C51.6542 44.7005 51.7355 44.9023 51.7844 45.1367C51.8365 45.3678 51.8625 45.6592 51.8625 46.0107V50H50.3195V49.1211C50.2089 49.4661 50.0087 49.7184 49.7189 49.8779C49.4292 50.0342 49.024 50.1156 48.5031 50.1221C48.1939 50.1318 47.9302 50.1286 47.7121 50.1123C47.494 50.096 47.2987 50.0602 47.1262 50.0049C46.9536 49.9528 46.8137 49.8828 46.7062 49.7949C46.6021 49.707 46.5142 49.5915 46.4426 49.4482C46.3742 49.3018 46.327 49.1357 46.301 48.9502C46.2749 48.7614 46.2619 48.5352 46.2619 48.2715C46.2619 47.9818 46.2831 47.7409 46.3254 47.5488C46.3677 47.3535 46.4361 47.1859 46.5305 47.0459C46.6249 46.9027 46.76 46.7936 46.9357 46.7188C47.1148 46.6439 47.3247 46.5902 47.5656 46.5576C47.8098 46.5218 48.1141 46.5023 48.4787 46.499H50.3195V46.2402C50.3195 46.0514 50.3163 45.9017 50.3098 45.791C50.3033 45.6771 50.2837 45.5729 50.2512 45.4785C50.2219 45.3809 50.1844 45.3092 50.1389 45.2637C50.0965 45.2181 50.0282 45.179 49.9338 45.1465C49.8426 45.1139 49.7434 45.0944 49.6359 45.0879C49.5285 45.0814 49.3837 45.0781 49.2014 45.0781C48.9051 45.0781 48.6838 45.0863 48.5373 45.1025C48.3908 45.1188 48.2704 45.166 48.176 45.2441C48.0848 45.319 48.0311 45.415 48.0148 45.5322C47.9986 45.6462 47.9937 45.8219 48.0002 46.0596H46.4523V45.8496C46.4523 45.5762 46.4686 45.3434 46.5012 45.1514C46.5337 44.9593 46.5923 44.7884 46.677 44.6387C46.7616 44.4857 46.869 44.3636 46.9992 44.2725C47.1327 44.1781 47.3052 44.1016 47.5168 44.043C47.7316 43.9811 47.9725 43.9388 48.2395 43.916C48.5096 43.8932 48.8368 43.8818 49.2209 43.8818ZM47.883 48.291C47.883 48.3854 47.8863 48.4635 47.8928 48.5254C47.8993 48.584 47.9123 48.6426 47.9318 48.7012C47.9546 48.7565 47.9839 48.7972 48.0197 48.8232C48.0555 48.846 48.1027 48.8721 48.1613 48.9014C48.2232 48.9274 48.2964 48.9421 48.3811 48.9453C48.4689 48.9486 48.5731 48.9551 48.6936 48.9648C48.814 48.9714 48.9523 48.9697 49.1086 48.96C49.5318 48.9502 49.8378 48.8786 50.0266 48.7451C50.2154 48.6117 50.313 48.4001 50.3195 48.1104V47.6904L49.1086 47.7002C48.8677 47.7035 48.6822 47.71 48.552 47.7197C48.425 47.7262 48.3094 47.7393 48.2053 47.7588C48.1011 47.7783 48.0295 47.8125 47.9904 47.8613C47.9546 47.9069 47.927 47.9622 47.9074 48.0273C47.8911 48.0892 47.883 48.1771 47.883 48.291ZM52.5977 48.4277H54.5361V49.3213C54.5361 49.9561 54.4385 50.3809 54.2432 50.5957C54.0511 50.8105 53.6719 50.918 53.1055 50.918H52.6074V50.4199C53.0534 50.4199 53.3464 50.3955 53.4863 50.3467C53.6263 50.3011 53.7028 50.1855 53.7158 50H52.5977V48.4277ZM64.483 42.2021L65.6891 48.3008H65.7623L66.9684 42.2021H68.609L67.0416 50H64.3316L63.0914 43.7598H63.0084L61.9195 50H59.1803L57.5689 42.2021H59.2926L60.5328 48.3008H60.6012L61.651 42.2021H64.483ZM68.8559 43.999H70.4037V50H68.8559V43.999ZM68.7924 43.1982V42.002H70.4623V43.1982H68.7924ZM71.2414 43.999H72.7893V44.9316C72.8869 44.5703 73.0936 44.305 73.4094 44.1357C73.7284 43.9665 74.1613 43.8818 74.7082 43.8818C75.0305 43.8818 75.2974 43.9046 75.509 43.9502C75.7238 43.9925 75.9094 44.0625 76.0656 44.1602C76.2219 44.2578 76.3407 44.3994 76.4221 44.585C76.5067 44.7673 76.5669 44.9854 76.6027 45.2393C76.6418 45.4932 76.6613 45.8105 76.6613 46.1914L76.6711 50H75.1184V46.5918C75.1184 46.3639 75.1151 46.1849 75.1086 46.0547C75.1021 45.9212 75.0842 45.7959 75.0549 45.6787C75.0256 45.5615 74.9898 45.4769 74.9475 45.4248C74.9084 45.3727 74.8449 45.3271 74.757 45.2881C74.6691 45.249 74.5731 45.2246 74.4689 45.2148C74.3648 45.2051 74.2248 45.2002 74.049 45.2002C73.6096 45.2002 73.2889 45.3076 73.0871 45.5225C72.8885 45.7373 72.7893 46.0824 72.7893 46.5576V50H71.2414V43.999ZM87.4432 46.6895C87.4464 47.1615 87.4269 47.5651 87.3846 47.9004C87.3422 48.2324 87.2625 48.5303 87.1453 48.7939C87.0314 49.0576 86.8849 49.2708 86.7059 49.4336C86.5301 49.5964 86.2973 49.7314 86.0076 49.8389C85.7179 49.9463 85.3891 50.0195 85.0213 50.0586C84.6534 50.1009 84.2107 50.1221 83.6932 50.1221C83.1756 50.1221 82.7329 50.0977 82.365 50.0488C81.9972 50 81.6668 49.9137 81.3738 49.79C81.0841 49.6663 80.8497 49.5101 80.6707 49.3213C80.4917 49.1292 80.3436 48.8786 80.2264 48.5693C80.1092 48.2601 80.0278 47.9102 79.9822 47.5195C79.9367 47.1257 79.9139 46.652 79.9139 46.0986C79.9139 45.5452 79.9367 45.0732 79.9822 44.6826C80.0278 44.2887 80.1092 43.9372 80.2264 43.6279C80.3436 43.3187 80.4917 43.0697 80.6707 42.8809C80.8497 42.6921 81.0841 42.5358 81.3738 42.4121C81.6668 42.2852 81.9972 42.1989 82.365 42.1533C82.7329 42.1045 83.1756 42.0801 83.6932 42.0801C84.2107 42.0801 84.6534 42.1012 85.0213 42.1436C85.3891 42.1826 85.7179 42.2542 86.0076 42.3584C86.2973 42.4626 86.5301 42.596 86.7059 42.7588C86.8849 42.9183 87.0314 43.1299 87.1453 43.3936C87.2625 43.6572 87.3422 43.9551 87.3846 44.2871C87.4269 44.6191 87.4464 45.0195 87.4432 45.4883H85.6609C85.6642 45.2474 85.6642 45.0472 85.6609 44.8877C85.6577 44.7249 85.643 44.5687 85.617 44.4189C85.5909 44.2692 85.56 44.1504 85.5242 44.0625C85.4917 43.9746 85.4363 43.8932 85.3582 43.8184C85.2833 43.7402 85.202 43.6833 85.1141 43.6475C85.0294 43.6117 84.9122 43.5807 84.7625 43.5547C84.6128 43.5254 84.4581 43.5075 84.2986 43.501C84.1391 43.4945 83.9373 43.4912 83.6932 43.4912C83.4523 43.4912 83.2505 43.4961 83.0877 43.5059C82.9282 43.5124 82.7736 43.5335 82.6238 43.5693C82.4741 43.6051 82.3553 43.6475 82.2674 43.6963C82.1795 43.7419 82.0965 43.8151 82.0184 43.916C81.9402 44.0169 81.8833 44.1243 81.8475 44.2383C81.8117 44.3522 81.7791 44.5068 81.7498 44.7021C81.7238 44.8975 81.7075 45.1009 81.701 45.3125C81.6945 45.5208 81.6912 45.7829 81.6912 46.0986C81.6912 46.4144 81.6945 46.6781 81.701 46.8896C81.7075 47.098 81.7238 47.2998 81.7498 47.4951C81.7791 47.6904 81.8117 47.8451 81.8475 47.959C81.8833 48.0729 81.9402 48.1803 82.0184 48.2812C82.0965 48.3822 82.1795 48.457 82.2674 48.5059C82.3553 48.5547 82.4741 48.597 82.6238 48.6328C82.7736 48.6654 82.9282 48.6865 83.0877 48.6963C83.2505 48.7061 83.4523 48.7109 83.6932 48.7109C83.9373 48.7109 84.1391 48.7077 84.2986 48.7012C84.4581 48.6947 84.6128 48.6784 84.7625 48.6523C84.9122 48.623 85.0294 48.5905 85.1141 48.5547C85.202 48.5189 85.2833 48.4619 85.3582 48.3838C85.4363 48.3024 85.4917 48.2178 85.5242 48.1299C85.56 48.042 85.5909 47.9232 85.617 47.7734C85.643 47.6204 85.6577 47.4626 85.6609 47.2998C85.6642 47.137 85.6642 46.9336 85.6609 46.6895H87.4432ZM88.0855 43.999H89.6334V45.0391C89.7245 44.681 89.915 44.4189 90.2047 44.2529C90.4977 44.0837 90.9111 43.999 91.4449 43.999H92.1041V45.3906L90.7857 45.3809C90.3788 45.3809 90.0842 45.4655 89.9019 45.6348C89.7229 45.804 89.6334 46.0791 89.6334 46.46V50H88.0855V43.999ZM96.1596 50.4688C96.0652 50.7845 95.9643 51.0368 95.8568 51.2256C95.7527 51.4144 95.6143 51.569 95.4418 51.6895C95.2725 51.8099 95.0756 51.8913 94.851 51.9336C94.6264 51.9792 94.3383 52.002 93.9867 52.002H93.0492V50.6787H93.8402C94.0714 50.6787 94.2357 50.6657 94.3334 50.6396C94.4343 50.6169 94.5124 50.5713 94.5678 50.5029C94.6264 50.4378 94.6833 50.3206 94.7387 50.1514L94.8461 49.7998H93.9574L92.1068 43.999H93.7182L95.1586 48.5791H95.2172L96.5697 43.999H98.0981L96.1596 50.4688ZM98.4426 52.002V43.999H99.9416V45.0781C100.033 44.6647 100.244 44.362 100.576 44.1699C100.908 43.9779 101.387 43.8818 102.012 43.8818C102.315 43.8818 102.572 43.9014 102.783 43.9404C102.998 43.9762 103.19 44.043 103.36 44.1406C103.529 44.235 103.664 44.3555 103.765 44.502C103.869 44.6484 103.954 44.8421 104.019 45.083C104.087 45.3239 104.134 45.5973 104.16 45.9033C104.186 46.2061 104.199 46.5723 104.199 47.002C104.199 47.4316 104.186 47.7995 104.16 48.1055C104.138 48.4082 104.092 48.68 104.024 48.9209C103.959 49.1618 103.876 49.3555 103.775 49.502C103.677 49.6484 103.545 49.7705 103.379 49.8682C103.216 49.9626 103.031 50.0277 102.822 50.0635C102.614 50.1025 102.363 50.1221 102.071 50.1221C101.449 50.1221 100.97 50.0277 100.635 49.8389C100.3 49.6501 100.085 49.3506 99.9904 48.9404L99.9807 52.002H98.4426ZM99.9904 47.8711C99.9904 48.1999 100.099 48.4375 100.318 48.584C100.539 48.7272 100.884 48.7988 101.353 48.7988C101.555 48.7988 101.714 48.7939 101.831 48.7842C101.952 48.7712 102.062 48.7402 102.163 48.6914C102.267 48.6393 102.342 48.5791 102.388 48.5107C102.437 48.4424 102.477 48.3333 102.51 48.1836C102.543 48.0339 102.562 47.8727 102.569 47.7002C102.578 47.5277 102.583 47.2949 102.583 47.002C102.583 46.7839 102.582 46.6032 102.578 46.46C102.575 46.3135 102.565 46.1735 102.549 46.04C102.533 45.9033 102.513 45.7959 102.49 45.7178C102.471 45.6396 102.437 45.5664 102.388 45.498C102.342 45.4264 102.293 45.3743 102.241 45.3418C102.189 45.3092 102.118 45.2816 102.027 45.2588C101.939 45.2327 101.846 45.2165 101.748 45.21C101.651 45.2035 101.529 45.2002 101.382 45.2002C100.897 45.2002 100.544 45.3044 100.322 45.5127C100.101 45.721 99.9904 46.0433 99.9904 46.4795V47.8711ZM108.812 48.6084V50H107.571C107.129 50 106.774 49.9756 106.507 49.9268C106.24 49.8747 106.022 49.7786 105.853 49.6387C105.683 49.4954 105.568 49.3132 105.506 49.0918C105.447 48.8672 105.418 48.5693 105.418 48.1982V45.3223H104.749V43.999H105.501V42.7197H106.971V43.999H108.709V45.3223H106.971V47.8223C106.971 47.9492 106.972 48.0518 106.976 48.1299C106.982 48.2048 106.995 48.2747 107.015 48.3398C107.037 48.4049 107.062 48.4521 107.088 48.4814C107.117 48.5107 107.163 48.5368 107.225 48.5596C107.29 48.5824 107.358 48.597 107.43 48.6035C107.501 48.6068 107.599 48.6084 107.723 48.6084H108.812ZM112.486 45.1611C112.353 45.1481 112.174 45.1416 111.949 45.1416C111.724 45.1416 111.545 45.1481 111.412 45.1611C111.278 45.1742 111.155 45.2067 111.041 45.2588C110.93 45.3076 110.847 45.3695 110.792 45.4443C110.74 45.516 110.694 45.6283 110.655 45.7812C110.616 45.9342 110.592 46.1003 110.582 46.2793C110.575 46.4583 110.572 46.6992 110.572 47.002C110.572 47.3047 110.575 47.5456 110.582 47.7246C110.592 47.9036 110.616 48.0697 110.655 48.2227C110.694 48.3757 110.74 48.4896 110.792 48.5645C110.847 48.6361 110.93 48.6979 111.041 48.75C111.155 48.7988 111.278 48.8298 111.412 48.8428C111.545 48.8558 111.724 48.8623 111.949 48.8623C112.174 48.8623 112.353 48.8574 112.486 48.8477C112.623 48.8346 112.748 48.8021 112.862 48.75C112.976 48.6947 113.059 48.6328 113.111 48.5645C113.163 48.4928 113.209 48.3805 113.248 48.2275C113.287 48.0713 113.31 47.9036 113.316 47.7246C113.326 47.5456 113.331 47.3047 113.331 47.002C113.331 46.6992 113.326 46.4583 113.316 46.2793C113.31 46.1003 113.287 45.9342 113.248 45.7812C113.209 45.625 113.163 45.5127 113.111 45.4443C113.059 45.3727 112.976 45.3109 112.862 45.2588C112.748 45.2035 112.623 45.1709 112.486 45.1611ZM109.005 48.1055C108.969 47.7995 108.951 47.4316 108.951 47.002C108.951 46.5723 108.969 46.2061 109.005 45.9033C109.04 45.5973 109.104 45.3239 109.195 45.083C109.29 44.8421 109.407 44.6484 109.547 44.502C109.69 44.3555 109.877 44.235 110.108 44.1406C110.339 44.043 110.6 43.9762 110.889 43.9404C111.182 43.9014 111.536 43.8818 111.949 43.8818C112.362 43.8818 112.716 43.9014 113.009 43.9404C113.305 43.9762 113.568 44.043 113.8 44.1406C114.031 44.235 114.218 44.3555 114.361 44.502C114.504 44.6484 114.622 44.8421 114.713 45.083C114.807 45.3239 114.872 45.5973 114.908 45.9033C114.944 46.2061 114.962 46.5723 114.962 47.002C114.962 47.4316 114.944 47.7995 114.908 48.1055C114.872 48.4082 114.807 48.68 114.713 48.9209C114.622 49.1618 114.504 49.3555 114.361 49.502C114.218 49.6484 114.031 49.7705 113.8 49.8682C113.568 49.9626 113.305 50.0277 113.009 50.0635C112.716 50.1025 112.362 50.1221 111.949 50.1221C111.536 50.1221 111.182 50.1025 110.889 50.0635C110.6 50.0277 110.339 49.9626 110.108 49.8682C109.877 49.7705 109.69 49.6484 109.547 49.502C109.407 49.3555 109.29 49.1618 109.195 48.9209C109.104 48.68 109.04 48.4082 109.005 48.1055Z" fill="white"/>
</svg>
